<?xml version="1.0" standalone="no"?>
<!DOCTYPE svg PUBLIC "-//W3C//DTD SVG 20010904//EN"
 "http://www.w3.org/TR/2001/REC-SVG-20010904/DTD/svg10.dtd">
<svg version="1.0" xmlns="http://www.w3.org/2000/svg"
 width="548.000000pt" height="548.000000pt" viewBox="0 0 548.000000 548.000000"
 preserveAspectRatio="xMidYMid meet">
<metadata>
Created by potrace 1.14, written by Peter Selinger 2001-2017
</metadata>
<g transform="translate(0.000000,548.000000) scale(0.100000,-0.100000)"
fill="#000000" stroke="none">
<path d="M314 5461 c-141 -48 -238 -148 -292 -300 -15 -41 -17 -163 -19 -1211
-3 -1311 -8 -1227 73 -1350 64 -98 139 -153 250 -186 48 -14 103 -17 320 -17
277 0 306 4 409 56 52 26 147 122 175 177 52 101 52 106 53 688 0 300 4 565 9
590 20 111 94 203 206 255 l67 32 570 1 c611 2 612 2 715 54 56 29 151 123
180 179 46 91 50 121 50 413 l1 277 -29 72 c-47 119 -135 207 -254 258 l-63
26 -1185 2 c-1105 2 -1188 1 -1236 -16z"/>
<path d="M4165 5474 c-185 -38 -258 -74 -369 -182 -98 -95 -165 -220 -181
-337 -4 -28 -9 -61 -11 -75 -2 -14 -4 -177 -4 -363 0 -375 -5 -418 -63 -536
-66 -134 -227 -259 -372 -289 -30 -7 -201 -11 -425 -11 -344 0 -381 -1 -452
-20 -118 -31 -194 -74 -286 -162 -112 -109 -175 -243 -193 -409 -5 -47 -9
-227 -9 -400 0 -349 -6 -393 -63 -509 -42 -87 -150 -195 -237 -239 -118 -59
-139 -61 -535 -63 -198 0 -382 -4 -410 -9 -100 -17 -113 -20 -160 -41 -76 -34
-136 -75 -203 -142 -100 -98 -159 -212 -182 -352 -5 -34 -8 -223 -6 -435 2
-310 6 -385 19 -430 65 -219 247 -398 463 -457 16 -4 1019 -9 2229 -11 1671
-2 2214 0 2260 9 84 17 210 79 276 136 110 95 172 192 208 323 21 74 21 80 21
2265 0 2406 4 2248 -61 2378 -65 132 -173 239 -302 301 -122 58 -169 64 -572
64 -198 0 -369 -2 -380 -4z"/>
</g>
</svg>
